<svg viewBox="0 0 85 79" xmlns="http://www.w3.org/2000/svg" fill-rule="evenodd" clip-rule="evenodd" stroke-linejoin="round" stroke-miterlimit="1.414"><path d="M49.75 71.5h1.5v3h-1.5V76h-4.5v3h-3v-9h7.5v1.5zm-46.5 6h-3V67h3v4.5h3V67h3v10.5h-3V73h-3v4.5zm79.5-6h1.5v3h-6V76h4.5v1.5h-6V76h-1.5v-4.5h1.5V70h6v1.5zM72.25 76h1.5v1.5h-3V76h-1.5v-9h3v9zm-6-4.5h1.5v3h-6V76h4.5v1.5h-6V76h-1.5v-4.5h1.5V70h6v1.5zM55.75 76h1.5v1.5h-3V76h-1.5v-6h3v6zm-16.5-4.5h-4.5V73h4.5v1.5h1.5V76h-1.5v1.5h-7.5V76h6v-1.5h-4.5V73h-1.5v-1.5h1.5V70h6v1.5zm-10.5 0h1.5V73h-3v-1.5h-3v6h-3V70h7.5v1.5zM18.25 73h1.5v3h-1.5v1.5h-6V76h-1.5v-3h1.5v-1.5h6V73zm-1.5 0h-3v3h3v-3zm31.5-1.5h-3v3h3v-3zm33 0h-3V73h3v-1.5zm-16.5 0h-3V73h3v-1.5zm-45-1.5h-3v-1.5h3V70zm-6 0h-3v-1.5h3V70zm42-1.5h-3V67h3v1.5zm-40.172-7.46H10.5c-2.03 0-3.79-.743-5.273-2.228C3.742 57.328 3 55.544 3 53.462v-45c0-2.084.742-3.855 2.227-5.314C6.71 1.69 8.47.96 10.5.96h62.656c2.032 0 3.79.73 5.274 2.188 1.484 1.46 2.226 3.23 2.226 5.313v45c0 2.09-.742 3.87-2.226 5.36-1.485 1.49-3.242 2.23-5.274 2.23h-5.234l-5-15.08H20.578l-5 15.08zm50-.157H17.922l4.22-12.422H61.2l4.376 12.43zm-40-7.422h-2.5v2.5h2.5v-2.5zm5 0h-2.5v2.5h2.5v-2.5zm17.344 0H35.578v2.5h12.344v-2.5zm7.656 0h-2.5v2.5h2.5v-2.5zm5 0h-2.5v2.5h2.5v-2.5zM73 8.46H10.5v32.5H73V8.46zm-4.922 27.5h-52.5v-22.5h52.5v22.5zm-11.25-17.577c-1.72 0-3.19.612-4.414 1.836-1.224 1.22-1.836 2.69-1.836 4.41 0 1.77.612 3.25 1.836 4.45 1.224 1.2 2.695 1.79 4.414 1.79 1.77 0 3.268-.6 4.492-1.797 1.224-1.198 1.836-2.68 1.836-4.453 0-1.72-.612-3.19-1.836-4.41-1.224-1.225-2.72-1.837-4.492-1.837zm-30 0c-1.77 0-3.255.612-4.453 1.836-1.198 1.22-1.797 2.69-1.797 4.41 0 1.77.6 3.25 1.797 4.45 1.198 1.2 2.682 1.79 4.453 1.79 1.72 0 3.19-.6 4.414-1.797 1.224-1.198 1.836-2.68 1.836-4.453 0-1.72-.612-3.19-1.836-4.41-1.224-1.225-2.695-1.837-4.414-1.837zm.156 8.828c-.73 0-1.328-.24-1.797-.74a2.474 2.474 0 0 1-.703-1.76c0-.67.235-1.26.703-1.75.47-.49 1.068-.74 1.797-.74.677 0 1.263.25 1.758.747.495.495.742 1.08.742 1.758 0 .68-.247 1.265-.742 1.76-.495.495-1.08.74-1.758.74zm29.688 0a2.39 2.39 0 0 1-1.758-.74 2.397 2.397 0 0 1-.742-1.76c0-.67.247-1.26.742-1.75s1.08-.74 1.758-.74c.73 0 1.328.25 1.797.747.46.495.7 1.08.7 1.758a2.48 2.48 0 0 1-.71 1.76c-.47.495-1.07.74-1.8.74zm-11.25-5h-7.344v5h7.344v-5z"/></svg>